# xmcd
#
# Track frame offsets:
#	150
#	20172
#	36108
#	55686
#	68580
#	89341
#	104552
#	121850
#	135922
#	155283
#	172783
#	183981
#	201236
#	217380
#	234604
#
# Disc length: 3331 seconds
#
# Revision: 1
# Processed by: cddbd v1.5.2PL0 Copyright (c) Steve Scherf et al.
# Submitted via: audiograbber 1.83.01
#
DISCID=cb0d010f
DTITLE=KC Ray - Down The River
DYEAR=2001
DGENRE=Blues
TTITLE0=Swamp Funk Blues
TTITLE1=Gumbo On The Bayou
TTITLE2=The Hoodoo Song
TTITLE3=Through The Delta
TTITLE4=What The Night Is For
TTITLE5=Black Diamond Blues
TTITLE6=Mean Green Blues
TTITLE7=Mississippi Blues
TTITLE8=Bayou Groove
TTITLE9=I Told My Baby
TTITLE10=Memphis
TTITLE11=It Was Hot
TTITLE12=Sweet Lovin' Woman
TTITLE13=Ode To Billy Joe
TTITLE14=Watching The River Flow
EXTD=
EXTT0=
EXTT1=
EXTT2=
EXTT3=
EXTT4=
EXTT5=
EXTT6=
EXTT7=
EXTT8=
EXTT9=
EXTT10=
EXTT11=
EXTT12=
EXTT13=
EXTT14=
PLAYORDER=
